<svg width="200" height="200" viewBox="0 0 200 200" xmlns="http://www.w3.org/2000/svg">
  <defs>
    <linearGradient id="grad3" x1="0%" y1="0%" x2="100%" y2="100%">
      <stop offset="0%" style="stop-color:#2e8555;stop-opacity:1" />
      <stop offset="100%" style="stop-color:#25c2a0;stop-opacity:1" />
    </linearGradient>
  </defs>
  
  <!-- Background circle -->
  <circle cx="100" cy="100" r="90" fill="url(#grad3)" stroke="#fff" stroke-width="4"/>
  
  <!-- Java cup symbol -->
  <path d="M 60 80 Q 60 70 70 70 L 130 70 Q 140 70 140 80 L 140 120 Q 140 140 120 140 L 80 140 Q 60 140 60 120 Z" 
        fill="white" stroke="white" stroke-width="2"/>
  
  <!-- Steam lines -->
  <path d="M 80 60 Q 85 50 80 40" stroke="white" stroke-width="2" fill="none"/>
  <path d="M 100 60 Q 105 50 100 40" stroke="white" stroke-width="2" fill="none"/>
  <path d="M 120 60 Q 125 50 120 40" stroke="white" stroke-width="2" fill="none"/>
  
  <!-- Handle -->
  <path d="M 140 90 Q 160 90 160 110 Q 160 130 140 130" stroke="white" stroke-width="3" fill="none"/>
</svg>
